<svg width="1221" height="687" viewBox="0 0 1221 687" fill="none" xmlns="http://www.w3.org/2000/svg">
<rect width="1221" height="687" fill="#DCDCDC"/>
<rect x="297" y="128" width="628" height="431" rx="16" stroke="#BCBCBC" stroke-width="16"/>
<path d="M473.454 310.201L303.351 490.879C300.556 493.847 299 497.77 299 501.847V532.904C299 534.623 299.277 536.332 299.821 537.963L303.853 550.06C306.031 556.593 312.145 561 319.032 561H903.344C907.306 561 911.128 559.53 914.068 556.874L919.725 551.765C923.083 548.731 925 544.417 925 539.891V469.574C925 464.496 922.59 459.72 918.505 456.703L806.287 373.835C799.828 369.065 790.835 369.821 785.263 375.601L698.552 465.554C692.639 471.687 682.957 472.112 676.53 466.52L495.606 309.099C489.124 303.458 479.344 303.945 473.454 310.201Z" fill="#BCBCBC" stroke="#BCBCBC"/>
<circle cx="724" cy="238" r="31" fill="#BCBCBC"/>
</svg>
