<svg width="1920" height="1074" viewBox="0 0 1920 1074" fill="none" xmlns="http://www.w3.org/2000/svg">
<path d="M0 0H1920V1020.04L1805 1037.04L1792 1045.54L1730 1039.54L1669.5 1031.04L1650 1022.54L1594 1042.04L1552 1039.54L1439 1060.04L1388.5 1037.54L1355.5 1046.04L1317 1039.04L1257.5 1046.04H1200L1140.25 1038.79L1112.5 1022.54L1098 1015.54L1072 1010.04L1017 1008.54L959 1020.54L839.125 1022.04L779.5 1029.54L752 1014.04L716 1022.04L599.5 1014.04L548 1017.04L525.5 1028.04L535.5 1055.54L490 1055.04L462.25 1060.79L423 1059.54L393.5 1067.54H369.5L349.5 1064.54L323 1056.04H314L295 1073.04L280 1064.54L251.5 1070.04L240.5 1063.54L227.5 1070.04L208 1056.04L188.625 1060.67L173 1059.54L156.5 1048.04L131.5 1042.54L66.5 1033.04L35 1037.04L0 1032.54V0Z" fill="#D9D9D9"/>
</svg>
