<svg width="1920" height="80" viewBox="0 0 1920 80" fill="none" xmlns="http://www.w3.org/2000/svg">
<path d="M21.0109 35.893L0 34.393V21.8941L21.0109 22.3941C26.5138 30.3941 41.0214 32.3941 46.024 32.3941C51.0266 32.3941 56.5294 26.3941 58.0302 25.3941C59.531 24.3941 78.5409 24.3941 86.0448 25.3941C93.5487 26.3941 96.05 32.8941 97.0505 32.8941C98.0511 32.8941 112.559 30.893 115.56 30.393C117.961 29.993 124.565 32.5597 127.566 33.893C129.968 41.493 136.238 40.7263 139.072 39.393C157.082 35.893 160.584 40.893 167.587 49.893C174.591 58.893 178.593 57.393 179.093 57.393C186.297 52.993 197.103 49.5597 201.605 48.393C214.612 46.893 214.612 64.393 227.118 65.893C230.888 66.3451 237.29 60.0597 240.125 56.393C240.625 59.893 253.132 71.393 259.635 67.393C264.838 64.193 275.143 59.0597 279.646 56.893C282.147 64.893 290.151 69.893 294.153 69.893C298.155 69.893 307.16 61.393 307.16 58.393C307.16 55.393 314.164 47.393 314.164 48.893C314.164 50.093 319.166 51.393 321.668 51.893C321.668 52.393 323.268 52.793 329.672 50.393C335.675 49.393 349.682 61.393 353.684 61.393C356.886 61.393 360.021 59.393 361.188 58.393C366.391 67.193 370.693 65.7263 372.194 63.893C372.861 62.7263 376.096 59.693 383.7 56.893C393.205 53.393 391.704 65.893 394.205 63.893C396.707 61.893 408.213 56.393 417.217 53.393C426.222 50.393 432.725 56.893 444.732 58.393C456.738 59.893 470.745 49.893 479.75 47.393C488.755 44.893 506.764 51.893 517.77 53.393C528.775 54.893 533.778 50.893 534.779 51.893C535.579 52.693 541.115 57.2263 543.783 59.393C532.978 67.393 495.591 62.7263 478.249 59.393C469.044 65.393 445.732 67.893 435.227 68.393C421.62 59.193 402.209 68.5597 394.205 74.393C389.803 64.393 380.031 69.2263 375.696 72.893C366.891 79.693 363.022 72.7263 362.189 68.393C357.786 73.993 353.684 72.7263 352.183 71.393C335.175 62.893 329.171 59.393 326.17 61.393C323.168 63.393 320.667 62.893 319.166 62.893C317.966 62.893 315.331 60.5597 314.164 59.393C313.33 59.2263 311.462 59.693 310.662 62.893C309.861 66.093 303.325 74.2263 300.156 77.893C292.152 84.693 283.147 73.0597 279.646 66.393L270.641 71.393C260.636 77.793 255.466 78.393 254.132 77.893C249.73 78.293 242.626 70.393 239.625 66.393C233.121 74.893 221.115 81.393 213.611 66.393C206.107 51.393 186.097 66.393 184.096 66.393C176.892 71.193 173.424 68.393 172.59 66.393C156.582 49.993 148.244 48.893 146.076 50.393C128.867 54.393 126.566 48.7263 127.566 45.393L114.56 42.893C112.158 44.093 101.886 45.0597 97.0505 45.393C88.6462 34.193 67.2017 36.393 57.53 38.893C43.5227 51.293 27.3476 42.0597 21.0109 35.893Z" fill="white"/>
<path d="M521.271 22.3941C520.771 23.3941 526.774 30.8941 526.774 31.3941C540.782 23.3938 557.624 21.3943 564.294 21.3945C580.702 11.3945 592.809 17.2279 596.811 21.3945C612.819 13.3945 614.32 26.3945 639.333 24.8945C659.343 30.0945 675.685 26.7279 681.355 24.3945C688.559 32.939 701.032 31.9547 706.368 30.3945C738.785 13.9945 750.558 17.8949 752.392 21.8951C762.397 16.8956 771.402 33.8945 777.905 35.8945C784.409 37.8945 787.41 28.8945 787.91 28.8945C788.411 28.8945 794.914 31.3945 804.919 33.3945C812.923 34.9945 831.266 31.0612 839.437 28.8945C850.243 32.4945 881.626 30.3945 895.967 28.8945C907.473 32.8945 899.468 33.8945 927.483 27.3945C955.498 20.8945 949.495 29.3945 959.5 25.8945C967.504 23.0945 982.845 24.0612 989.515 24.8945C991.35 23.5612 995.819 20.7945 999.02 20.3945C1002.22 19.9945 1005.02 21.2279 1006.02 21.8945C1006.02 19.8945 1010.36 16.7279 1012.53 15.3945C1038.04 10.8945 1060.05 18.8945 1061.05 18.8945C1062.05 18.8945 1061.05 20.3945 1068.56 16.8945C1076.06 13.3945 1080.56 21.8945 1081.06 21.8945C1096.07 14.3945 1100.07 23.8945 1103.07 26.3945C1106.08 28.8945 1120.58 31.8945 1127.09 34.8945C1133.59 37.8945 1143.1 48.3945 1148.6 50.3945C1153 51.9945 1176.11 50.7279 1187.12 49.8945C1191.62 55.3945 1221.64 52.8945 1227.14 51.3945C1232.64 49.8945 1238.65 54.8945 1240.15 53.3945C1241.65 51.8945 1263.16 52.8945 1286.17 45.8945C1304.58 40.2945 1329.19 43.5612 1339.2 45.8945C1353.2 61.8945 1369.21 49.3945 1374.72 44.8945C1379.12 41.2945 1384.55 41.7279 1386.72 42.3945C1389.56 43.5612 1395.73 45.8945 1397.73 45.8945C1400.23 45.8945 1409.73 54.3945 1412.74 54.8945C1415.14 55.2945 1417.4 54.0612 1418.24 53.3945C1424.74 62.3945 1428.74 62.8945 1438.75 67.3945C1446.75 70.9945 1466.76 59.5612 1475.77 53.3945C1484.77 58.3945 1494.78 53.8945 1503.78 52.3945C1510.99 51.1945 1515.46 51.8945 1516.79 52.3945C1523.96 49.2279 1542.9 44.0945 1561.31 48.8945C1579.72 53.6945 1594.33 47.8945 1599.33 44.3945C1616.84 44.3945 1636.35 31.3945 1641.86 29.3945C1647.36 27.3945 1660.36 28.3945 1660.36 29.3945C1660.36 30.3945 1665.87 39.8945 1666.87 39.8945C1667.67 39.8945 1668.87 38.5612 1669.37 37.8945C1677.37 41.0945 1699.72 44.8945 1709.89 46.3945L1759.42 46.8945C1769.02 42.8945 1786.1 48.5612 1793.43 51.8945H1799.94V50.3945C1787.43 33.8945 1836.46 45.8945 1838.96 45.8945C1840.96 45.8945 1845.79 41.5612 1847.96 39.3945L1845.96 38.3945C1844.96 37.8945 1843.46 29.8945 1842.46 31.3945C1841.66 32.5945 1838.12 32.8945 1836.46 32.8945C1793.43 23.8945 1798.44 31.3945 1798.44 33.8945C1798.44 36.3945 1799.94 39.8945 1797.44 40.3945C1795.44 40.7945 1778.26 35.8945 1769.92 33.3945C1766.92 34.3945 1760.02 35.8945 1756.41 33.8945C1751.91 31.3945 1710.89 35.8945 1708.89 33.8945C1706.89 31.8945 1682.38 29.3945 1676.37 27.8945C1671.57 26.6945 1669.37 25.0612 1668.87 24.3945C1668.7 25.0612 1668.07 26.4945 1666.87 26.8945C1665.37 27.3945 1662.87 19.8945 1660.36 15.3945C1658.36 11.7945 1646.86 13.8945 1641.35 15.3945C1633.35 23.3945 1600.83 31.8945 1598.33 32.8945C1595.83 33.8945 1590.83 40.3945 1581.82 38.3945C1572.82 36.3945 1543.3 35.8945 1540.3 35.3945C1537.3 34.8945 1521.29 39.8945 1515.29 41.3945C1509.29 42.8945 1513.79 41.8945 1506.28 39.8945C1498.78 37.8945 1493.78 43.8945 1488.28 44.3945C1483.87 44.7945 1478.1 42.5612 1475.77 41.3945C1460.76 53.3945 1455.76 51.8945 1444.75 56.8945C1433.75 61.8945 1418.24 40.3945 1418.24 40.8945C1418.24 41.3945 1412.74 42.8945 1409.73 42.3945C1406.73 41.8945 1398.73 34.3945 1397.73 33.8945C1396.73 33.3945 1396.73 33.8945 1390.22 30.3945C1385.02 27.5945 1380.39 29.2279 1378.72 30.3945C1375.05 33.5612 1365.81 40.3945 1358.21 42.3945C1348.7 44.8945 1342.2 36.3945 1339.2 33.8945C1336.2 31.3945 1320.69 31.8945 1319.69 31.8945C1308.08 28.2945 1296.84 30.3945 1292.67 31.8945C1279.47 35.8945 1250.48 39.8945 1237.64 41.3945C1235.14 36.3945 1206.63 44.3945 1195.62 41.3945C1186.82 38.9945 1183.62 37.7279 1183.12 37.3945C1168.11 40.8945 1152.6 38.8945 1147.6 37.3945C1142.6 35.8945 1132.09 19.8945 1127.09 20.8945C1123.08 21.6945 1108.41 14.5616 1101.57 10.8951C1093.57 -2.10441 1086.57 5.39453 1085.57 4.89453C1084.56 4.39453 1081.56 8.39453 1080.56 6.39453C1079.56 4.39453 1074.56 1.39453 1070.56 2.39453C1066.56 3.39453 1062.05 3.39506 1061.05 3.39506C1053.55 -1.60494 1028.54 0.395062 1022.53 0.395062H1013.03C1009.43 0.395062 1006.86 5.06173 1006.02 7.39506C1003.22 2.19506 994.518 7.56173 990.516 10.8951C985.313 7.69506 976.342 9.56173 972.506 10.8951C968.338 11.8951 958.199 13.2951 950.995 10.8951C941.991 7.89506 930.985 12.3951 927.483 13.8951C923.981 15.3951 908.973 18.3951 901.97 17.8951C894.966 17.3951 896.967 13.3951 894.466 14.8951C891.965 16.3951 852.444 16.3951 845.941 14.8951C840.738 13.6951 832.767 15.3951 829.432 16.3951C810.222 22.7951 793.413 18.0617 787.41 14.8951C785.809 19.2951 782.074 21.3951 780.406 21.8951C775.404 24.8951 765.399 12.3951 761.897 8.39506C758.395 4.39506 756.394 5.89506 755.393 6.89506C754.593 7.69506 752.058 7.22839 750.891 6.89506C741.386 -1.10494 716.873 10.8951 705.367 16.8951C693.861 22.8951 682.856 10.8951 681.355 10.8951C679.854 10.8951 669.349 15.3951 665.847 14.8951C663.045 14.4951 647.004 12.0617 639.333 10.8951C637.665 12.2284 631.129 13.4951 618.322 7.89506C605.515 2.29506 599.312 5.22777 597.811 7.39412C591.408 0.993363 584.805 0.394468 582.303 0.895114C577.301 -1.10489 564.794 7.39412 563.293 7.39412C551.287 4.39412 521.772 21.3941 521.271 22.3941Z" fill="white"/>
<path d="M1847.96 26.3945C1848.96 27.8945 1846.96 27.8945 1846.46 28.3945H1863.97C1868.14 29.8945 1877.38 31.8945 1880.98 27.8945C1884.58 23.8945 1888.15 26.5612 1889.48 28.3945C1890.68 27.1945 1910.33 25.8945 1920 25.3945V11.3945C1917.5 9.89453 1889.48 15.3945 1888.48 13.8945C1887.68 12.6945 1886.15 12.0612 1885.48 11.8945C1883.81 13.0612 1879.68 15.5945 1876.48 16.3945C1872.48 17.3945 1867.47 16.3945 1864.97 14.8945C1862.47 13.3945 1844.46 14.8945 1842.96 16.3945C1841.46 17.8945 1844.46 19.8945 1846.46 24.3945C1848.46 28.8945 1846.96 24.8945 1847.96 26.3945Z" fill="white"/>
</svg>
